<?xml version="1.0" ?><!DOCTYPE svg  PUBLIC '-//W3C//DTD SVG 1.1//EN'  'http://www.w3.org/Graphics/SVG/1.1/DTD/svg11.dtd'><svg enable-background="new 0 0 59.6021 59.5855" id="cupid-bow" version="1.1" viewBox="0 0 59.6021 59.5855" xml:space="preserve" xmlns="http://www.w3.org/2000/svg" xmlns:xlink="http://www.w3.org/1999/xlink"><g><g><path d="M34.1822,24.0938c-4.1236-3.6328-9.6763-4.3955-13.6099-4.3955c-2.7871,0-5.8477,0.3847-8.6162,1.082    l-0.794-1.8057c3.4619-2.2802,7.4951-3.4853,11.666-3.4853c5.2764,0,10.3422,1.9648,14.27,5.5303l0.7773,0.705l-2.9902,2.9903    L34.1822,24.0938z" fill="#C0DFCF"/><path d="M38.815,47.6538c0.8476-3.373,3.1152-14.9414-3.3086-22.2348l-0.6211-0.7051l2.9902-2.9893l0.7051,0.7764    c3.5664,3.9258,5.5293,8.9946,5.5293,14.272c0,4.1738-1.207,8.2109-3.4902,11.6738L38.815,47.6538z" fill="#C0DFCF"/><path d="M41.1177,19.2529L40.8345,19l-0.4746-0.292l-0.0059-0.5508l-0.0039-7.7148l0.0098-0.0723    c-0.0371-1.0605,0.3477-2.0488,1.082-2.7851c0.6778-0.6797,1.6407-1.0684,2.6426-1.0684c1.002,0,1.9648,0.3906,2.6465,1.0703    c1.457,1.459,1.459,3.8311,0.0019,5.2871c0.6778-0.6777,1.6426-1.0673,2.6426-1.0683c1.002,0,1.9649,0.3896,2.6426,1.0683    c0.707,0.7071,1.0957,1.6465,1.0957,2.6436c0,0.9971-0.3887,1.9365-1.0957,2.6436c-0.707,0.7099-1.6523,1.0859-2.7324,1.0859    l-0.0742,0.0098L41.1177,19.2529z" fill="#FFA8A6"/></g><g><g><g><path d="M9.5171,58.7691c-0.5342,0-0.9775-0.4219-0.9985-0.9605L8.2642,51.419l-6.9849,0.2597      c-0.5801,0.0176-1.0161-0.4106-1.0366-0.9624c-0.0205-0.5517,0.4107-1.0161,0.9624-1.0366l7.9815-0.2969      c0.5683-0.0136,1.0146,0.4087,1.0361,0.96l0.2939,7.3867c0.022,0.5518-0.4072,1.0166-0.9594,1.0386      C9.544,58.7686,9.5303,58.7691,9.5171,58.7691L9.5171,58.7691z" fill="#43525B"/></g><g><path d="M14.2437,54.0405c-0.5342,0-0.9775-0.4218-0.9985-0.9604l-0.2534-6.3921l-6.9839,0.2583      c-0.5649,0.0352-1.0161-0.4111-1.0366-0.9624c-0.02-0.5522,0.4107-1.0161,0.9624-1.0366l7.9805-0.2949      c0.5615-0.0259,1.0146,0.4096,1.0361,0.9599l0.293,7.3887c0.022,0.5518-0.4077,1.0171-0.9595,1.0386      C14.2705,54.0401,14.2569,54.0405,14.2437,54.0405L14.2437,54.0405z" fill="#43525B"/></g></g><g><path d="M6.3438,54.2573c-0.2559,0-0.5117-0.0976-0.7071-0.2929c-0.3906-0.3907-0.3906-1.0235,0-1.4141     l34.3814-34.3794c0.3906-0.3906,1.0234-0.3906,1.4141,0c0.3906,0.3906,0.3906,1.0235,0,1.4141L7.0508,53.9644     C6.8555,54.1597,6.5996,54.2573,6.3438,54.2573L6.3438,54.2573z" fill="#43525B"/></g><g><path d="M37.8755,52.8223c-0.1186,0-0.2392-0.0215-0.3564-0.0659l-21.8755-8.3418     c-0.2671-0.1021-0.478-0.3135-0.5791-0.5811L6.8477,22.0791c-0.1953-0.5166,0.0654-1.0937,0.582-1.289     c0.5166-0.1944,1.0938,0.0649,1.2891,0.582l8.0576,21.334l21.4556,8.1811c0.5161,0.1968,0.7749,0.7749,0.5781,1.291     C38.6577,52.5767,38.2784,52.8223,37.8755,52.8223L37.8755,52.8223z" fill="#43525B"/></g><g><g><path d="M37.8755,52.8218c-0.2558,0-0.5122-0.0977-0.707-0.293c-0.3906-0.3906-0.3906-1.0239,0-1.414      c3.8325-3.8311,5.9433-8.9239,5.9438-14.3409c0.0005-5.4174-2.1098-10.5102-5.9419-14.3398      c-3.831-3.8325-8.9238-5.9429-14.3403-5.9429c-5.4165,0-10.5093,2.1104-14.3398,5.9424      c-0.3897,0.3906-1.0235,0.3901-1.4141,0.0005c-0.3906-0.3906-0.3906-1.0239,0-1.4145c4.2075-4.21,9.8027-6.5284,15.7534-6.5284      h0.0005c5.9512,0,11.5459,2.3184,15.7544,6.5284c4.21,4.2075,6.5283,9.8027,6.5278,15.7543      c-0.0005,5.9517-2.3193,11.5469-6.5297,15.7549C38.3872,52.7241,38.1314,52.8218,37.8755,52.8218L37.8755,52.8218z" fill="#43525B"/></g><g><path d="M38.3633,51.958l-1.7217-1.0185c1.2691-2.1455,5.5132-17.5064-2.479-25.4991      c-8.0058-8.0048-23.3515-3.7504-25.4936-2.478l-1.0215-1.7197c2.6772-1.5894,19.0869-6.0571,27.9292,2.7837      C44.4038,32.854,39.9483,49.2774,38.3633,51.958L38.3633,51.958z" fill="#43525B"/></g><g><path d="M4.1026,25.249C1.8394,25.249,0,23.4092,0,21.1475c0-2.2617,1.8399-4.1016,4.1016-4.1016      c0.5522,0,1,0.4478,1,1c0,0.5523-0.4478,1-1,1C2.9429,19.0459,2,19.9888,2,21.1475c0,1.1587,0.9424,2.1015,2.1006,2.1015      c0.521-0.0009,1.0083-0.2363,1.4478-0.6997c0.0166-0.0195,0.0341-0.0381,0.0522-0.0566l1.4756-1.4746      c0.3906-0.3897,1.0239-0.3902,1.4146,0.0005c0.3901,0.3906,0.3901,1.0239-0.0005,1.4145L7.045,23.877      C6.2173,24.772,5.1997,25.2466,4.1026,25.249L4.1026,25.249z" fill="#43525B"/></g><g><path d="M38.5371,59.5855c-0.0034-0.001-0.0073-0.0005-0.0092,0c-1.0474,0-2.0391-0.4131-2.7906-1.1636      c-0.7788-0.7778-1.2075-1.8198-1.2075-2.9341c-0.0024-1.0869,0.4102-2.105,1.1655-2.8808      c0.0225-0.0293,0.0464-0.0572,0.0728-0.084l1.4316-1.4727c0.3838-0.397,1.0176-0.4048,1.4141-0.0195      c0.396,0.3847,0.4048,1.018,0.0195,1.414l-1.3388,1.3775c-0.0323,0.0434-0.0684,0.084-0.1084,0.1225      c-0.4244,0.4063-0.6577,0.9532-0.6563,1.5411c0,0.5815,0.2207,1.1211,0.6211,1.521c0.3735,0.373,0.8633,0.5786,1.3794,0.5786      c0.0015,0,0.0029,0,0.0044,0c0.521,0,1.0127-0.2056,1.3867-0.5791c0.3999-0.3994,0.6201-0.939,0.6201-1.5186      c0-0.5522,0.4478-1,1-1c0.5523,0,1,0.4478,1,1c0,1.1143-0.4287,2.1563-1.2065,2.9336      C40.583,59.1719,39.5899,59.5855,38.5371,59.5855L38.5371,59.5855z" fill="#43525B"/></g></g></g><g><g><path d="M49.2466,20.2559c0,0,0,0-0.0005,0l-8.8926-0.003c-0.5517,0-0.9995-0.4477-0.9995-0.9995l-0.0039-8.8906     c0-0.041,0.0025-0.0815,0.0074-0.1216c-0.003-1.2758,0.4819-2.4643,1.3759-3.3618c0.896-0.8965,2.086-1.3891,3.3511-1.3891     c1.2666,0,2.4575,0.4936,3.3535,1.3896c1.0723,1.0737,1.5225,2.5366,1.3506,3.936c1.4307-0.1753,2.9023,0.3169,3.937,1.3521     c0.896,0.896,1.3892,2.0874,1.3882,3.354c-0.001,1.2642-0.4941,2.4526-1.3896,3.3452c-0.8838,0.8897-2.0743,1.3814-3.3492,1.3814     l0,0l-0.0049-0.0005C49.3296,20.2534,49.2881,20.2559,49.2466,20.2559L49.2466,20.2559z M41.3535,18.2534l7.75,0.0025     c0.0562-0.0083,0.1128-0.0117,0.1734-0.0093c0.0024,0,0.0049,0,0.0073,0c0.833,0,1.5171-0.2817,2.0244-0.7925     c0.52-0.518,0.8047-1.2041,0.8052-1.9336c0.0005-0.7319-0.2847-1.4204-0.8027-1.9384c-1.0342-1.0342-2.8379-1.0337-3.8711-0.0005     c-0.3907,0.3896-1.024,0.3901-1.4146-0.0005c-0.1948-0.1953-0.2925-0.4517-0.2925-0.7075c0-0.2559,0.0977-0.5118,0.293-0.7071     c1.0669-1.0659,1.0659-2.8032-0.0024-3.873c-1.0352-1.0342-2.8394-1.0366-3.8745-0.0015     c-0.5362,0.5381-0.8169,1.2642-0.7896,2.043c0.002,0.0591-0.001,0.1172-0.0093,0.1743L41.3535,18.2534L41.3535,18.2534z" fill="#43525B"/></g><g><g><path d="M58.6021,14.8897h-1.832c-0.5523,0-1-0.4478-1-1c0-0.5523,0.4477-1,1-1h1.832c0.5522,0,1,0.4477,1,1      C59.6021,14.4419,59.1543,14.8897,58.6021,14.8897L58.6021,14.8897z" fill="#43525B"/></g><g><path d="M45.7154,3.8321c-0.5518,0-0.9995-0.4468-1-0.9991l-0.002-1.832      C44.7129,0.4487,45.1602,0.0005,45.7124,0c0.0005,0,0.0005,0,0.0005,0c0.5523,0,1,0.4468,1.0005,0.999l0.002,1.8321      c0.0005,0.5522-0.4468,1.0005-0.9991,1.001C45.7163,3.8321,45.7159,3.8321,45.7154,3.8321L45.7154,3.8321z" fill="#43525B"/></g><g><path d="M53.5337,7.0703c-0.2553,0-0.5112-0.0971-0.7065-0.292c-0.3906-0.3901-0.3916-1.0234-0.0015-1.4145      l1.293-1.2959c0.3891-0.3906,1.0224-0.3921,1.4145-0.0015c0.3907,0.3902,0.3916,1.0235,0.0015,1.4146l-1.293,1.2959      C54.0464,6.9722,53.7901,7.0703,53.5337,7.0703L53.5337,7.0703z" fill="#43525B"/></g><g><path d="M37.897,7.0713c-0.2563,0-0.5122-0.0976-0.7075-0.2934L35.8946,5.481      c-0.3902-0.3906-0.3897-1.0239,0.0009-1.4141c0.3907-0.3896,1.0235-0.3906,1.4141,0.001l1.2949,1.2969      c0.3902,0.3906,0.3897,1.0239-0.001,1.414C38.4082,6.9737,38.1529,7.0713,37.897,7.0713L37.897,7.0713z" fill="#43525B"/></g><g><path d="M54.8267,24.002c-0.2564,0-0.5122-0.0977-0.7075-0.2935l-1.293-1.2949      c-0.3901-0.3906-0.3896-1.0239,0.001-1.4141c0.3906-0.3896,1.0234-0.3906,1.414,0.001l1.293,1.2949      c0.3901,0.3907,0.3897,1.024-0.001,1.4141C55.3379,23.9043,55.0826,24.002,54.8267,24.002L54.8267,24.002z" fill="#43525B"/></g></g></g></g></svg>